<?xml version="1.0" standalone="no"?>
<!DOCTYPE svg PUBLIC "-//W3C//DTD SVG 20010904//EN"
 "http://www.w3.org/TR/2001/REC-SVG-20010904/DTD/svg10.dtd">
<svg version="1.0" xmlns="http://www.w3.org/2000/svg"
 width="3264.000000pt" height="3264.000000pt" viewBox="0 0 3264.000000 3264.000000"
 preserveAspectRatio="xMidYMid meet">

<g transform="translate(0.000000,3264.000000) scale(0.100000,-0.100000)"
fill="#000000" stroke="none">
<path d="M15893 28536 c-7 -9 -44 -16 -95 -20 -268 -19 -367 -28 -426 -40 -37
-8 -110 -17 -162 -21 -52 -3 -140 -15 -195 -25 -55 -10 -127 -22 -160 -25 -33
-4 -82 -13 -110 -20 -27 -8 -86 -19 -130 -25 -91 -13 -251 -44 -340 -67 -68
-18 -183 -43 -300 -67 -44 -9 -109 -25 -145 -36 -202 -60 -236 -70 -245 -70
-5 0 -48 -11 -95 -25 -47 -15 -123 -38 -170 -51 -47 -14 -105 -33 -130 -42
-25 -9 -63 -22 -85 -28 -22 -7 -92 -31 -155 -53 -63 -22 -122 -41 -130 -41 -8
0 -28 -7 -45 -16 -16 -9 -52 -23 -80 -31 -27 -8 -54 -19 -60 -23 -5 -5 -35
-17 -65 -28 -81 -30 -150 -57 -192 -76 -21 -9 -41 -16 -46 -16 -9 0 -84 -31
-167 -69 -42 -20 -134 -61 -200 -91 -39 -17 -72 -32 -220 -99 -38 -17 -81 -38
-95 -45 -14 -8 -106 -55 -205 -105 -225 -115 -319 -166 -551 -301 -24 -14 -78
-45 -121 -69 -43 -24 -107 -62 -143 -86 -62 -40 -90 -59 -240 -153 -36 -23
-78 -51 -95 -62 -16 -12 -57 -39 -90 -61 -33 -21 -100 -68 -150 -104 -49 -36
-117 -83 -150 -106 -85 -60 -241 -176 -300 -225 -27 -22 -81 -65 -120 -94 -67
-51 -329 -268 -370 -307 -11 -10 -49 -43 -85 -74 -36 -30 -78 -66 -94 -79 -15
-14 -81 -75 -145 -136 -64 -61 -134 -127 -156 -148 -89 -82 -202 -196 -278
-276 -45 -47 -121 -128 -171 -180 -123 -129 -402 -448 -506 -578 -36 -45 -98
-124 -139 -175 -108 -135 -182 -233 -276 -367 -25 -36 -70 -99 -100 -140 -47
-66 -203 -296 -230 -341 -6 -9 -19 -29 -29 -45 -29 -43 -106 -164 -131 -204
-33 -53 -69 -113 -82 -135 -35 -58 -151 -261 -170 -296 -12 -22 -29 -52 -39
-67 -16 -24 -78 -145 -242 -467 -64 -127 -152 -313 -152 -323 0 -3 -13 -33
-29 -66 -74 -156 -109 -234 -121 -271 -7 -22 -17 -49 -23 -60 -6 -11 -19 -40
-28 -65 -50 -133 -69 -182 -99 -250 -17 -41 -38 -95 -45 -120 -18 -61 -44
-136 -66 -190 -16 -43 -43 -122 -74 -220 -16 -51 -38 -118 -61 -187 -9 -27
-22 -73 -29 -105 -7 -31 -22 -85 -33 -120 -11 -34 -24 -79 -28 -98 -4 -19 -12
-48 -19 -65 -7 -16 -24 -82 -39 -145 -14 -63 -33 -142 -41 -175 -8 -33 -24
-105 -36 -159 -11 -55 -24 -107 -29 -116 -5 -9 -13 -52 -20 -96 -6 -45 -15
-96 -20 -115 -6 -19 -17 -80 -25 -137 -8 -56 -21 -126 -29 -155 -8 -28 -17
-83 -21 -122 -3 -38 -12 -106 -20 -150 -8 -44 -19 -132 -25 -195 -6 -63 -17
-149 -26 -190 -8 -42 -19 -156 -24 -255 -5 -99 -17 -252 -26 -340 -24 -223
-24 -1149 0 -1395 8 -91 20 -246 26 -345 6 -99 15 -198 20 -220 5 -22 17 -112
25 -200 8 -88 22 -189 30 -225 7 -36 17 -99 20 -140 4 -41 13 -97 20 -125 8
-27 19 -88 24 -135 6 -47 20 -121 30 -165 11 -44 24 -105 29 -135 18 -105 44
-220 91 -410 10 -41 26 -106 35 -145 10 -38 26 -97 37 -130 10 -33 19 -68 19
-78 0 -10 11 -52 25 -95 13 -42 31 -99 40 -127 8 -27 27 -86 41 -130 14 -44
32 -105 39 -136 8 -31 22 -69 30 -85 8 -16 18 -45 21 -64 4 -19 11 -40 16 -47
5 -6 18 -38 28 -70 18 -57 62 -178 100 -278 10 -27 28 -75 39 -105 11 -30 29
-73 41 -95 11 -21 20 -44 20 -51 0 -6 12 -38 26 -70 14 -33 35 -81 47 -109 11
-27 40 -92 64 -143 24 -52 43 -96 43 -98 0 -3 22 -51 49 -107 26 -56 51 -112
55 -125 4 -13 22 -49 40 -80 17 -31 62 -118 100 -192 38 -74 75 -146 82 -160
31 -57 141 -254 161 -288 12 -20 31 -55 43 -77 22 -43 102 -180 134 -230 11
-17 38 -59 61 -95 23 -36 64 -100 91 -143 90 -145 236 -360 265 -393 11 -11
19 -24 19 -28 0 -4 19 -33 42 -64 24 -31 52 -69 63 -84 117 -160 181 -244 283
-373 69 -88 335 -408 348 -420 6 -5 73 -80 149 -165 272 -307 733 -758 1054
-1030 207 -176 275 -232 376 -310 54 -41 112 -87 129 -101 36 -29 189 -146
226 -172 80 -55 101 -71 165 -116 39 -28 111 -77 160 -110 50 -34 95 -64 100
-69 6 -4 37 -25 70 -46 72 -47 164 -106 263 -170 40 -26 82 -51 95 -56 12 -6
42 -23 67 -39 55 -36 258 -153 348 -202 244 -131 316 -168 472 -245 281 -137
351 -170 430 -204 41 -17 95 -40 120 -50 25 -10 79 -33 120 -50 41 -18 93 -40
116 -51 22 -10 44 -19 49 -19 4 0 26 -9 49 -19 23 -11 61 -26 86 -34 91 -31
156 -55 185 -71 17 -9 38 -16 48 -16 10 0 30 -6 45 -14 30 -15 151 -56 312
-106 58 -18 128 -40 155 -50 106 -37 271 -85 403 -115 35 -8 72 -20 83 -26 11
-5 54 -17 95 -25 42 -8 80 -17 85 -20 5 -3 50 -13 101 -24 51 -10 122 -25 158
-34 159 -38 209 -49 270 -58 36 -5 103 -18 150 -28 47 -11 125 -24 173 -30 48
-6 99 -15 113 -20 14 -6 113 -17 221 -25 107 -9 227 -20 267 -25 281 -38 1444
-38 1681 0 33 6 125 15 205 20 80 6 177 17 215 25 39 8 129 21 202 29 73 8
140 19 150 25 10 5 41 12 68 15 28 4 100 18 160 31 61 13 130 28 155 33 25 5
99 24 165 42 66 18 145 38 175 44 30 7 64 17 75 23 11 6 50 19 85 28 36 9 70
20 75 25 6 4 26 11 45 14 33 7 122 37 220 76 25 10 79 30 120 46 84 31 195 76
256 105 22 10 44 19 48 19 7 0 194 87 239 111 10 6 47 25 83 44 35 19 94 51
131 71 36 19 91 51 120 70 29 19 55 34 58 34 4 0 123 80 215 145 194 136 381
308 532 490 116 140 119 144 160 210 17 28 39 62 49 77 11 15 19 31 19 36 0 5
9 21 20 35 12 14 26 41 32 59 6 18 16 40 23 48 7 8 16 26 20 40 4 14 15 43 25
65 27 60 68 194 76 245 3 25 14 70 23 100 24 81 23 502 -1 575 -9 28 -19 70
-22 95 -16 115 -135 415 -228 570 -20 33 -108 164 -155 231 -91 128 -301 339
-488 491 -32 27 -156 117 -190 139 -129 84 -165 106 -239 145 -71 39 -125 65
-291 144 -85 40 -154 68 -186 75 -19 4 -39 11 -45 16 -13 11 -222 79 -243 79
-9 1 -34 8 -56 16 -22 8 -76 21 -120 30 -43 9 -87 20 -97 25 -10 5 -57 14
-106 20 -48 5 -121 16 -162 24 -170 33 -641 45 -932 26 -149 -11 -378 -46
-463 -72 -33 -10 -78 -21 -100 -25 -22 -4 -52 -13 -67 -20 -15 -8 -51 -19 -80
-25 -29 -7 -69 -20 -88 -30 -19 -11 -39 -19 -44 -19 -5 0 -27 -9 -50 -19 -23
-11 -68 -31 -101 -46 -255 -117 -506 -299 -662 -482 -97 -113 -189 -267 -209
-348 -4 -17 -13 -42 -21 -58 -23 -45 -36 -237 -24 -346 11 -96 44 -198 82
-253 11 -14 19 -30 19 -35 0 -19 126 -130 190 -167 90 -53 219 -96 311 -103
119 -9 174 14 89 37 -75 20 -192 109 -255 192 -151 201 -119 460 88 712 58 70
184 178 247 211 176 91 213 105 465 166 152 37 683 36 782 -2 15 -6 53 -15 83
-20 64 -12 197 -53 255 -79 22 -10 51 -21 65 -25 85 -26 356 -190 460 -278
100 -85 241 -233 284 -298 58 -89 77 -118 104 -164 16 -27 33 -61 37 -75 4
-14 11 -30 16 -36 15 -19 50 -123 86 -259 31 -116 35 -148 40 -301 6 -170 -7
-367 -28 -422 -6 -14 -17 -58 -25 -96 -8 -38 -18 -74 -23 -80 -5 -6 -14 -29
-21 -51 -14 -45 -67 -154 -96 -200 -10 -17 -28 -46 -39 -64 -70 -118 -275
-331 -452 -473 -105 -83 -127 -99 -238 -170 -44 -28 -92 -59 -107 -69 -15 -11
-30 -19 -34 -19 -3 0 -42 -20 -85 -44 -96 -54 -373 -182 -449 -207 -30 -10
-86 -30 -125 -44 -38 -15 -100 -35 -136 -45 -37 -10 -72 -21 -79 -25 -16 -10
-177 -52 -265 -69 -38 -8 -82 -19 -96 -24 -15 -6 -64 -16 -110 -22 -46 -7
-109 -18 -139 -26 -56 -15 -294 -48 -455 -64 -322 -32 -860 -47 -1100 -31 -93
6 -239 16 -322 21 -84 5 -197 16 -250 25 -54 8 -140 19 -191 24 -51 6 -123 17
-160 25 -37 8 -110 22 -162 30 -172 28 -281 52 -485 103 -33 9 -94 24 -135 34
-41 9 -115 29 -165 44 -49 14 -119 34 -155 44 -36 10 -75 23 -85 28 -11 6 -45
16 -75 23 -30 7 -60 16 -65 21 -6 4 -69 28 -140 52 -72 25 -161 57 -200 72
-38 15 -93 35 -121 45 -28 10 -60 23 -70 28 -10 6 -53 25 -94 42 -41 17 -93
40 -115 50 -249 113 -443 210 -613 305 -230 128 -353 199 -392 225 -14 10 -85
57 -159 106 -119 80 -187 126 -277 189 -16 11 -64 47 -108 80 -43 33 -88 67
-100 75 -48 33 -400 327 -478 398 -98 90 -375 367 -468 467 -71 77 -340 401
-408 492 -133 177 -207 283 -292 414 -36 55 -185 301 -194 319 -4 8 -20 38
-36 65 -16 28 -58 106 -93 175 -35 69 -71 139 -80 155 -9 17 -30 62 -48 100
-17 39 -39 88 -49 110 -32 69 -70 162 -70 170 0 4 -9 26 -20 49 -20 42 -56
137 -83 216 -8 25 -31 92 -51 150 -79 229 -134 416 -176 597 -11 46 -23 91
-28 100 -6 10 -15 52 -21 93 -7 41 -18 100 -27 130 -8 30 -21 93 -28 140 -8
47 -21 123 -29 170 -28 159 -56 364 -79 590 -21 205 -23 272 -23 765 0 452 3
561 18 670 9 72 21 186 27 255 6 69 14 143 20 165 5 22 16 97 24 167 9 70 20
138 26 152 5 14 14 62 20 108 5 45 19 120 29 167 11 47 24 106 29 131 24 112
85 356 112 450 57 192 69 238 75 269 4 18 16 52 26 75 10 22 19 50 19 61 0 11
7 34 16 50 8 17 22 55 30 85 15 57 43 135 75 208 10 23 19 50 19 60 0 9 11 40
25 67 13 28 25 57 25 65 0 8 9 31 19 51 10 19 24 51 29 70 6 19 27 72 47 119
20 47 41 99 47 115 6 17 16 37 23 45 7 8 18 33 25 55 7 22 18 51 25 65 7 14
27 54 43 90 49 105 230 470 265 535 18 33 56 104 85 158 47 88 102 188 158
286 89 155 140 242 162 276 28 44 46 72 118 188 103 165 159 252 205 317 18
25 59 86 93 135 33 50 63 92 66 95 3 3 23 32 45 65 22 33 47 67 55 76 8 9 38
49 65 88 28 40 71 100 97 134 26 34 60 79 75 100 15 22 46 60 68 85 23 26 49
58 58 72 9 14 37 52 63 85 45 59 63 80 194 236 36 42 72 85 80 95 385 466
1024 1108 1560 1566 106 91 342 286 370 307 20 14 85 65 145 113 184 147 504
382 636 468 21 14 102 68 181 121 79 53 170 113 203 134 81 52 192 123 236
152 19 12 39 23 43 23 4 0 36 18 71 41 35 22 77 48 93 57 44 25 121 69 167 97
22 13 63 35 91 49 29 15 69 38 90 53 22 14 52 30 69 36 16 5 37 15 45 22 52
43 807 416 1060 525 41 17 93 40 115 50 94 44 154 70 161 70 4 0 26 9 48 19
23 11 84 36 136 55 52 20 104 41 114 47 10 6 42 19 70 29 28 9 94 34 146 55
52 20 127 48 165 62 39 14 90 34 115 44 25 10 65 23 90 30 25 6 50 14 55 18 6
4 64 25 130 45 66 21 143 46 170 56 91 33 183 62 352 109 40 11 81 24 91 30
10 6 52 18 93 27 41 9 81 20 90 25 9 5 45 15 80 23 35 8 114 29 174 45 61 17
139 37 175 45 100 22 238 56 315 77 39 10 79 19 91 19 11 0 54 9 95 20 41 10
108 24 149 30 41 6 95 17 120 25 25 7 83 19 130 25 47 6 110 17 140 25 30 7
87 17 125 20 39 4 108 15 155 25 47 10 121 21 165 25 44 4 107 13 140 20 33 8
101 16 150 20 50 3 155 15 235 26 80 10 258 26 395 34 138 9 297 20 355 25
297 28 1691 21 1930 -9 41 -6 174 -15 295 -21 121 -6 265 -17 320 -25 55 -8
168 -19 250 -25 83 -6 168 -15 190 -20 22 -5 110 -16 194 -25 85 -9 184 -22
220 -30 37 -7 100 -16 141 -20 41 -4 107 -13 145 -20 39 -8 120 -21 180 -29
61 -9 126 -20 145 -26 50 -14 110 -13 110 3 0 16 -17 33 -231 242 -152 149
-274 260 -461 422 -26 23 -54 48 -62 55 -33 31 -120 104 -135 112 -9 6 -77 60
-151 121 -125 103 -222 179 -274 215 -11 8 -55 39 -96 70 -41 30 -86 63 -100
72 -14 9 -43 31 -65 47 -38 29 -369 255 -404 276 -19 12 -175 111 -211 135
-14 9 -71 43 -128 76 -56 32 -126 73 -155 91 -29 18 -63 37 -77 43 -14 6 -32
17 -40 25 -8 7 -64 39 -125 71 -60 31 -148 77 -195 102 -146 77 -363 186 -430
216 -36 16 -108 49 -160 73 -268 125 -272 127 -365 162 -90 34 -200 78 -230
91 -55 25 -156 63 -200 77 -27 8 -54 19 -60 23 -5 4 -35 15 -65 23 -30 8 -93
29 -140 47 -47 17 -112 39 -145 50 -33 10 -82 26 -110 35 -53 17 -126 39 -267
80 -49 14 -125 36 -170 50 -46 14 -88 25 -95 25 -7 0 -34 7 -60 16 -26 9 -79
22 -118 29 -86 16 -228 50 -315 75 -36 10 -87 22 -115 25 -27 4 -72 13 -100
20 -27 8 -86 19 -130 25 -44 6 -102 18 -130 25 -27 8 -79 17 -115 20 -36 4
-110 15 -165 25 -55 10 -134 21 -175 25 -41 4 -114 13 -161 21 -48 8 -174 21
-280 29 -202 16 -229 20 -229 36 0 5 -349 9 -897 9 -747 -1 -900 -3 -910 -14z"/>
<path d="M22660 24500 c-369 -12 -687 -29 -755 -40 -33 -6 -135 -15 -227 -20
-92 -5 -200 -16 -240 -25 -40 -8 -134 -19 -208 -26 -74 -6 -160 -17 -190 -24
-30 -7 -91 -17 -135 -20 -44 -4 -123 -15 -175 -25 -52 -11 -140 -24 -195 -31
-55 -6 -107 -15 -115 -19 -8 -5 -65 -15 -125 -23 -61 -9 -123 -20 -138 -26
-15 -6 -68 -16 -118 -22 -50 -6 -105 -17 -122 -24 -18 -7 -57 -16 -87 -20 -30
-3 -86 -15 -125 -25 -38 -10 -92 -22 -120 -25 -27 -3 -68 -13 -90 -20 -22 -8
-80 -23 -130 -34 -159 -35 -267 -61 -284 -70 -9 -5 -36 -12 -61 -15 -25 -4
-81 -18 -125 -31 -113 -34 -210 -62 -280 -81 -84 -22 -182 -50 -235 -68 -69
-24 -139 -45 -210 -66 -78 -22 -149 -47 -210 -71 -25 -10 -65 -23 -90 -30 -25
-6 -49 -14 -55 -19 -5 -4 -37 -15 -70 -25 -33 -9 -65 -21 -70 -25 -6 -5 -33
-14 -60 -21 -28 -6 -55 -15 -60 -20 -13 -10 -134 -56 -195 -74 -25 -7 -63 -23
-85 -34 -21 -12 -46 -21 -55 -21 -8 0 -28 -9 -45 -20 -16 -11 -38 -20 -48 -20
-10 0 -39 -11 -65 -24 -26 -13 -60 -26 -77 -30 -16 -4 -37 -13 -45 -21 -8 -7
-31 -18 -51 -24 -20 -6 -53 -20 -74 -31 -22 -11 -46 -20 -55 -20 -9 0 -20 -4
-25 -9 -6 -5 -53 -28 -105 -51 -113 -50 -216 -99 -405 -190 -77 -38 -156 -75
-175 -84 -19 -8 -67 -33 -106 -54 -40 -22 -80 -42 -90 -46 -11 -4 -41 -20 -69
-36 -27 -17 -65 -37 -84 -46 -18 -8 -81 -42 -139 -75 -58 -33 -120 -67 -136
-75 -17 -8 -71 -39 -121 -69 -49 -29 -119 -70 -155 -90 -66 -38 -78 -46 -207
-129 -40 -25 -76 -46 -81 -46 -5 0 -15 -7 -23 -16 -7 -8 -29 -24 -48 -35 -56
-32 -104 -61 -167 -103 -33 -21 -75 -49 -94 -61 -49 -31 -147 -96 -180 -120
-15 -11 -65 -46 -111 -77 -46 -31 -109 -75 -139 -97 -30 -22 -68 -48 -85 -57
-16 -9 -37 -23 -45 -31 -16 -15 -143 -111 -201 -152 -20 -14 -69 -51 -110 -82
-41 -31 -110 -84 -154 -117 -44 -33 -89 -69 -100 -79 -19 -18 -56 -48 -125
-101 -68 -53 -386 -317 -450 -373 -36 -32 -137 -120 -225 -197 -88 -76 -176
-154 -195 -172 -19 -19 -87 -81 -150 -138 -448 -408 -1105 -1066 -1345 -1347
-27 -32 -61 -71 -75 -85 -61 -66 -182 -213 -211 -256 -8 -13 -31 -41 -50 -61
-19 -21 -43 -50 -54 -65 -45 -61 -108 -146 -145 -197 -21 -30 -48 -66 -60 -80
-11 -14 -31 -42 -45 -61 -13 -19 -63 -93 -112 -164 -48 -70 -97 -143 -108
-161 -11 -19 -35 -55 -53 -80 -18 -26 -41 -63 -52 -83 -12 -20 -29 -50 -40
-67 -11 -16 -31 -50 -45 -75 -14 -25 -49 -83 -77 -130 -79 -132 -184 -328
-265 -495 -25 -49 -49 -98 -54 -107 -5 -10 -13 -26 -18 -35 -22 -42 -109 -230
-116 -252 -4 -14 -16 -38 -26 -55 -11 -17 -19 -37 -19 -45 0 -8 -9 -32 -19
-55 -67 -143 -81 -176 -81 -188 0 -7 -7 -26 -16 -43 -15 -29 -34 -80 -74 -195
-10 -30 -33 -93 -50 -140 -17 -47 -39 -114 -50 -150 -10 -36 -26 -87 -34 -115
-9 -27 -25 -79 -36 -115 -11 -36 -27 -87 -36 -115 -8 -27 -20 -72 -26 -100 -6
-27 -18 -79 -28 -115 -10 -36 -24 -94 -31 -130 -6 -36 -17 -76 -24 -90 -7 -14
-16 -54 -19 -90 -4 -36 -16 -99 -26 -140 -10 -41 -21 -100 -25 -130 -4 -30
-13 -80 -20 -110 -8 -30 -19 -109 -25 -175 -7 -66 -18 -149 -26 -185 -8 -35
-19 -145 -24 -245 -6 -99 -15 -216 -22 -260 -15 -109 -15 -854 1 -955 6 -41
16 -158 21 -260 5 -102 14 -199 19 -217 5 -17 17 -92 26 -165 9 -73 22 -153
30 -178 7 -25 17 -70 21 -100 3 -30 14 -82 24 -115 10 -33 21 -80 25 -105 3
-25 15 -67 25 -95 10 -27 30 -90 44 -140 15 -49 33 -110 42 -135 8 -25 21 -65
28 -90 7 -25 20 -58 28 -75 9 -16 19 -46 23 -65 4 -19 13 -45 20 -56 13 -20
31 -67 72 -184 9 -25 22 -52 30 -61 7 -8 13 -19 13 -24 0 -5 14 -38 31 -74 17
-36 41 -88 54 -116 38 -82 85 -178 101 -205 7 -14 56 -102 108 -195 51 -94
110 -198 131 -230 77 -122 106 -166 142 -221 21 -31 47 -70 58 -88 11 -18 26
-39 33 -47 20 -23 112 -150 112 -154 0 -6 103 -143 123 -165 22 -24 108 -129
157 -194 24 -32 56 -71 71 -87 14 -15 40 -45 59 -66 130 -150 452 -477 605
-614 119 -106 201 -177 245 -213 25 -20 54 -45 65 -54 11 -10 31 -25 45 -33
14 -9 40 -30 58 -47 18 -17 47 -40 65 -51 18 -11 43 -31 57 -44 14 -13 66 -51
115 -85 50 -34 99 -69 110 -77 11 -9 45 -32 75 -52 30 -20 57 -39 60 -42 6 -8
136 -88 181 -113 17 -9 58 -34 92 -55 93 -59 124 -77 212 -123 90 -46 250
-130 280 -148 30 -17 162 -72 173 -72 5 0 15 -6 21 -14 7 -8 26 -18 43 -22 17
-3 51 -17 76 -30 25 -13 52 -24 61 -24 9 0 30 -9 46 -20 17 -11 39 -20 50 -20
12 0 39 -9 60 -20 22 -11 58 -25 80 -31 22 -5 54 -16 70 -24 29 -13 137 -47
320 -100 50 -14 117 -34 150 -45 33 -10 82 -21 108 -25 26 -3 71 -14 100 -24
29 -10 77 -22 107 -26 29 -4 67 -13 84 -20 17 -7 60 -16 96 -20 36 -3 100 -15
144 -26 43 -11 125 -24 182 -30 57 -5 114 -13 128 -18 13 -5 79 -15 147 -21
150 -13 268 -26 369 -40 92 -13 990 -14 1075 -1 108 16 218 31 340 46 160 20
230 32 355 60 58 13 125 29 150 34 77 17 214 57 235 68 11 6 38 14 60 18 22 4
58 15 80 25 22 9 58 23 80 30 22 7 45 16 50 20 6 5 30 13 55 20 25 7 50 16 56
21 11 9 92 50 164 84 19 8 52 26 72 38 290 173 422 273 633 478 227 220 385
502 431 769 33 189 37 240 26 313 -28 181 -44 259 -62 299 -11 24 -20 50 -20
58 -1 31 -111 234 -172 315 -51 68 -191 210 -252 255 -123 91 -182 130 -207
135 -15 4 -33 13 -40 21 -6 8 -16 14 -21 14 -5 0 -28 9 -51 20 -77 38 -211 79
-397 123 -25 6 -158 10 -305 10 -250 0 -264 -1 -359 -26 -54 -15 -105 -27
-113 -27 -8 0 -33 -9 -56 -19 -23 -11 -59 -22 -79 -26 -21 -4 -42 -13 -48 -20
-6 -8 -25 -17 -41 -20 -16 -4 -31 -11 -35 -16 -3 -5 -26 -20 -52 -33 -41 -21
-90 -65 -161 -143 -33 -36 -71 -128 -82 -195 -24 -148 23 -247 133 -279 39
-11 46 9 24 70 -50 141 31 295 198 375 145 70 195 81 361 80 131 0 157 -3 203
-22 29 -12 60 -22 70 -22 9 0 31 -7 47 -16 17 -9 47 -22 67 -29 95 -35 270
-179 334 -275 38 -58 81 -146 89 -185 4 -16 16 -56 26 -88 28 -84 28 -322 1
-393 -11 -27 -22 -68 -26 -90 -6 -45 -82 -200 -136 -278 -74 -108 -262 -280
-406 -371 -100 -63 -271 -155 -289 -155 -5 0 -16 -6 -24 -14 -20 -17 -133 -64
-186 -77 -22 -6 -50 -17 -62 -25 -12 -8 -46 -19 -75 -25 -29 -6 -58 -15 -64
-20 -6 -5 -42 -15 -80 -23 -38 -8 -87 -21 -109 -29 -22 -8 -70 -18 -105 -21
-36 -4 -88 -14 -116 -22 -173 -48 -801 -51 -1039 -5 -55 11 -125 23 -155 26
-30 4 -86 15 -125 25 -38 10 -90 22 -115 25 -25 4 -56 13 -70 20 -14 7 -52 18
-85 25 -33 7 -69 17 -80 23 -11 6 -47 19 -80 28 -82 24 -164 54 -200 73 -16 9
-36 16 -43 16 -7 0 -43 14 -80 31 -37 17 -85 39 -107 49 -111 51 -106 48 -209
102 -39 21 -93 49 -121 63 -27 14 -63 34 -80 45 -16 11 -47 29 -67 40 -20 11
-52 30 -71 42 -19 13 -67 43 -106 68 -40 25 -96 64 -126 88 -29 23 -57 42 -60
42 -6 0 -101 70 -179 132 -143 114 -339 290 -437 393 -41 42 -95 98 -120 123
-40 41 -208 249 -249 308 -52 75 -130 194 -144 219 -10 17 -29 50 -43 75 -49
84 -193 374 -193 387 0 8 -9 31 -19 51 -31 58 -93 237 -118 337 -8 33 -21 76
-28 95 -8 19 -19 62 -25 95 -7 33 -18 83 -25 110 -8 28 -17 82 -20 120 -4 39
-13 95 -21 126 -42 171 -45 969 -4 1109 6 19 15 80 20 135 10 94 32 215 66
350 8 33 23 96 34 140 23 98 63 236 84 290 8 22 15 47 16 55 0 8 6 27 14 42 8
15 21 51 30 81 9 30 23 67 31 83 8 16 15 33 15 38 0 13 45 118 113 266 14 30
35 78 47 105 29 64 98 206 110 225 6 8 15 26 21 40 6 14 23 48 39 75 16 28 42
77 59 110 28 56 68 122 112 187 11 15 19 31 19 36 0 8 45 79 129 206 25 37 57
86 71 107 67 103 181 265 218 310 29 34 101 129 137 179 22 30 47 62 55 71 8
9 24 27 35 40 11 13 46 56 78 94 32 39 65 79 74 90 26 33 155 179 172 195 9 8
68 71 132 140 131 141 451 459 519 515 25 21 54 47 66 59 25 26 102 95 179
161 33 28 77 66 100 85 22 19 60 51 85 69 25 19 54 43 65 54 18 16 127 103
180 143 11 8 50 38 87 67 37 29 84 64 105 80 21 15 47 34 58 42 59 46 124 92
212 152 54 36 109 75 123 85 14 11 63 44 110 73 47 30 99 64 115 75 58 41 167
110 173 110 4 0 37 20 74 44 36 24 101 63 143 87 42 24 97 56 123 71 26 15 61
34 77 43 17 9 51 29 77 43 47 27 197 106 253 134 17 9 44 22 60 31 95 48 321
157 410 197 153 70 269 120 278 120 6 0 29 9 51 19 62 29 167 71 206 83 19 5
40 14 45 18 6 4 35 15 65 24 30 9 69 22 85 30 38 18 110 42 198 66 37 10 73
23 80 28 7 5 37 15 67 22 30 7 66 18 80 25 14 7 48 16 75 20 28 4 64 14 82 22
37 17 145 47 259 72 44 10 86 21 93 25 6 4 51 16 99 26 48 11 116 26 152 35
131 32 354 79 475 100 44 8 121 24 170 34 50 11 122 23 160 26 39 3 90 12 115
20 25 7 92 19 150 25 58 6 137 17 175 25 39 8 127 19 196 25 70 6 141 15 158
20 17 5 102 14 189 20 86 6 209 18 272 26 184 24 723 45 1135 45 452 0 1200
-24 1381 -45 71 -9 213 -20 316 -26 103 -6 209 -14 235 -19 26 -5 118 -14 203
-21 85 -6 180 -16 210 -21 30 -5 118 -16 195 -24 77 -8 167 -22 200 -30 34 -8
109 -19 169 -24 59 -6 124 -15 144 -21 20 -5 85 -16 145 -24 59 -9 131 -22
160 -30 28 -8 81 -18 116 -22 35 -3 94 -15 130 -25 36 -11 77 -19 91 -19 14 0
50 -7 80 -15 30 -8 89 -22 130 -30 41 -8 104 -23 140 -34 36 -10 88 -24 115
-29 92 -20 180 -44 227 -63 26 -10 57 -19 70 -19 13 -1 75 -19 138 -41 63 -22
141 -47 174 -55 32 -8 68 -21 80 -28 11 -8 37 -17 56 -21 19 -4 49 -15 65 -25
17 -10 46 -21 65 -25 19 -4 42 -13 50 -20 8 -7 35 -18 58 -25 24 -6 60 -20 80
-30 21 -10 48 -24 62 -29 14 -6 32 -15 40 -20 8 -5 47 -23 85 -41 39 -17 77
-35 85 -41 8 -5 33 -18 55 -29 22 -12 63 -34 90 -51 28 -16 64 -36 81 -44 17
-7 36 -21 44 -29 7 -9 18 -16 25 -16 11 0 34 -16 110 -75 11 -8 45 -34 75 -56
85 -63 228 -216 296 -315 33 -49 63 -97 67 -106 7 -21 43 -24 50 -5 5 13 -4
303 -23 722 -6 132 -17 285 -25 340 -8 55 -22 163 -29 240 -24 229 -47 404
-66 500 -11 50 -22 115 -25 145 -3 30 -14 91 -25 135 -10 44 -21 109 -25 143
-3 35 -11 76 -17 90 -5 15 -18 70 -29 122 -10 52 -25 120 -32 150 -8 30 -19
78 -25 105 -20 93 -43 180 -62 240 -11 33 -20 67 -20 75 0 20 -73 274 -127
437 -12 39 -23 79 -23 88 0 8 -8 32 -19 53 -10 20 -22 53 -26 72 -4 19 -13 49
-21 65 -8 17 -20 53 -28 80 -21 71 -54 167 -67 189 -6 10 -18 42 -26 70 -8 28
-19 56 -23 61 -4 6 -15 34 -24 64 -9 29 -20 59 -25 65 -4 6 -14 27 -20 47 -6
20 -20 53 -31 74 -11 22 -20 46 -20 55 0 8 -8 29 -19 46 -10 17 -22 41 -26 55
-7 24 -38 96 -75 174 -10 22 -29 65 -43 95 -13 30 -36 80 -50 110 -27 59 -227
461 -265 532 -81 152 -194 354 -237 423 -14 22 -34 59 -45 82 -11 23 -25 45
-30 48 -6 4 -19 23 -30 43 -12 20 -28 49 -38 63 -9 14 -27 41 -39 60 -99 157
-357 448 -523 591 -130 111 -327 258 -395 293 -16 8 -50 28 -75 44 -25 16
-101 57 -170 91 -69 34 -136 67 -150 75 -14 7 -43 18 -65 25 -22 7 -45 16 -51
21 -14 11 -142 56 -210 73 -28 7 -60 18 -72 25 -11 6 -54 17 -94 25 -40 8 -85
19 -100 25 -14 5 -64 15 -110 21 -45 6 -103 17 -128 25 -25 7 -88 19 -140 25
-52 7 -122 18 -155 26 -33 7 -119 18 -190 23 -72 6 -153 15 -180 20 -62 12
-357 29 -655 36 -124 3 -254 7 -290 9 -36 2 -180 0 -320 -4z"/>
<path d="M21915 17440 c-80 -3 -153 -11 -170 -18 -19 -9 -118 -16 -285 -23
-140 -5 -264 -11 -275 -14 -102 -26 -163 -35 -237 -35 -68 0 -94 -4 -120 -19
-27 -17 -61 -21 -193 -27 -129 -6 -164 -10 -182 -24 -15 -11 -51 -20 -104 -25
-45 -3 -93 -13 -105 -22 -15 -10 -66 -18 -149 -23 -101 -7 -129 -12 -139 -25
-9 -12 -32 -18 -82 -22 -38 -2 -90 -13 -117 -24 -26 -11 -84 -22 -130 -26 -58
-4 -88 -11 -102 -23 -13 -12 -45 -20 -95 -25 -41 -3 -93 -14 -115 -24 -22 -10
-67 -21 -100 -25 -32 -4 -67 -14 -77 -22 -11 -11 -46 -19 -102 -23 -61 -5 -90
-11 -105 -25 -11 -10 -42 -21 -68 -24 -26 -3 -59 -14 -73 -24 -16 -11 -51 -21
-95 -25 -49 -4 -74 -11 -82 -23 -7 -10 -32 -19 -62 -23 -28 -3 -61 -13 -74
-22 -14 -9 -50 -20 -82 -25 -32 -5 -66 -17 -75 -25 -10 -9 -42 -20 -72 -25
-29 -4 -71 -17 -93 -29 -21 -11 -50 -21 -64 -21 -14 0 -34 -9 -46 -20 -13 -12
-42 -22 -80 -26 -41 -5 -64 -13 -73 -26 -7 -10 -23 -18 -35 -18 -12 0 -43 -11
-69 -25 -26 -14 -62 -25 -81 -25 -24 0 -39 -6 -48 -21 -9 -13 -29 -22 -57 -26
-24 -3 -46 -12 -49 -19 -2 -7 -30 -18 -61 -25 -32 -7 -65 -20 -74 -30 -9 -9
-36 -20 -58 -24 -23 -4 -44 -13 -47 -21 -3 -8 -23 -17 -45 -20 -22 -4 -48 -16
-59 -27 -12 -13 -36 -22 -69 -25 -35 -3 -54 -10 -60 -22 -5 -10 -22 -21 -36
-24 -15 -4 -39 -16 -52 -27 -14 -10 -42 -22 -64 -25 -21 -4 -38 -11 -38 -15 0
-5 -17 -17 -37 -26 -21 -8 -54 -24 -74 -34 -20 -11 -44 -19 -52 -19 -9 0 -22
-6 -29 -13 -19 -19 -54 -37 -72 -37 -9 0 -25 -9 -36 -20 -11 -11 -32 -23 -46
-26 -15 -4 -35 -15 -45 -25 -11 -11 -29 -19 -42 -19 -13 0 -38 -11 -57 -25
-19 -14 -39 -25 -45 -25 -7 0 -24 -11 -39 -25 -16 -15 -39 -25 -56 -25 -20 0
-31 -6 -35 -19 -3 -12 -19 -23 -38 -27 -18 -4 -38 -15 -45 -25 -7 -10 -28 -21
-47 -25 -18 -3 -41 -15 -51 -25 -9 -10 -22 -19 -28 -19 -6 0 -28 -11 -48 -25
-20 -14 -44 -25 -52 -25 -8 0 -20 -9 -26 -20 -7 -12 -25 -22 -50 -26 -26 -4
-41 -13 -45 -25 -4 -11 -12 -19 -19 -19 -7 0 -26 -11 -42 -25 -16 -14 -36 -25
-45 -25 -9 0 -28 -10 -42 -22 -31 -28 -111 -78 -124 -78 -5 0 -16 -9 -26 -20
-9 -11 -31 -23 -47 -26 -16 -4 -32 -15 -35 -25 -4 -11 -12 -19 -19 -19 -7 0
-24 -10 -37 -21 -13 -12 -36 -26 -52 -31 -15 -6 -32 -19 -38 -29 -5 -10 -15
-19 -20 -19 -6 0 -24 -11 -41 -25 -16 -14 -38 -25 -48 -25 -10 0 -22 -9 -25
-20 -3 -11 -17 -23 -31 -26 -13 -3 -24 -12 -24 -19 0 -8 -9 -16 -19 -20 -21
-6 -84 -52 -116 -85 -12 -11 -26 -20 -32 -20 -7 0 -17 -9 -23 -20 -6 -11 -16
-20 -23 -20 -7 0 -35 -21 -62 -46 -28 -25 -62 -52 -76 -60 -15 -7 -29 -20 -32
-29 -4 -8 -13 -15 -21 -15 -8 0 -18 -9 -21 -20 -3 -11 -17 -23 -31 -26 -13 -3
-24 -12 -24 -20 0 -7 -9 -18 -19 -24 -11 -5 -40 -30 -66 -55 -26 -24 -55 -47
-65 -50 -10 -3 -30 -23 -44 -45 -14 -22 -37 -42 -51 -46 -14 -3 -25 -10 -25
-15 0 -14 -214 -229 -228 -229 -7 0 -12 -7 -12 -16 0 -9 -24 -40 -52 -70 -29
-29 -75 -78 -103 -110 -27 -31 -59 -67 -71 -78 -11 -12 -23 -29 -27 -38 -3
-10 -13 -18 -22 -18 -8 0 -15 -7 -15 -15 0 -8 -11 -22 -25 -31 -14 -9 -25 -20
-25 -25 0 -9 -90 -124 -130 -165 -11 -12 -20 -26 -20 -32 0 -6 -9 -16 -20 -22
-11 -6 -20 -17 -20 -25 0 -8 -6 -18 -14 -22 -7 -4 -25 -27 -40 -50 -14 -24
-30 -43 -35 -43 -5 0 -12 -11 -15 -25 -4 -14 -12 -25 -19 -25 -7 0 -18 -15
-25 -34 -7 -18 -21 -41 -32 -51 -11 -10 -20 -24 -20 -31 0 -7 -8 -15 -17 -18
-10 -3 -26 -23 -36 -44 -24 -52 -51 -96 -60 -100 -4 -2 -16 -21 -27 -41 -10
-21 -26 -43 -34 -50 -9 -8 -16 -22 -16 -33 0 -11 -8 -22 -19 -25 -11 -3 -21
-17 -25 -33 -3 -16 -14 -37 -24 -47 -11 -10 -25 -35 -31 -55 -7 -21 -16 -38
-20 -38 -4 0 -15 -16 -24 -35 -9 -19 -21 -35 -27 -35 -5 0 -13 -18 -16 -40 -4
-24 -14 -45 -25 -50 -9 -6 -20 -24 -24 -41 -4 -17 -15 -39 -25 -49 -9 -9 -20
-30 -24 -46 -4 -16 -15 -38 -25 -49 -10 -11 -23 -39 -30 -62 -6 -24 -16 -43
-21 -43 -5 0 -15 -18 -21 -41 -7 -23 -18 -43 -25 -46 -7 -3 -16 -24 -20 -48
-3 -24 -17 -59 -30 -76 -13 -18 -24 -39 -24 -46 0 -8 -9 -26 -19 -41 -11 -15
-22 -48 -26 -74 -3 -26 -13 -51 -20 -56 -8 -4 -19 -32 -25 -62 -6 -29 -17 -64
-24 -75 -8 -12 -18 -40 -21 -61 -4 -21 -15 -51 -25 -65 -10 -14 -23 -56 -28
-93 -6 -37 -17 -78 -25 -89 -8 -12 -17 -44 -21 -72 -4 -27 -16 -63 -26 -80
-12 -20 -19 -59 -23 -117 -3 -52 -11 -99 -22 -120 -9 -18 -20 -70 -24 -116 -6
-59 -14 -88 -27 -103 -18 -20 -19 -46 -19 -560 0 -506 1 -539 18 -551 13 -10
20 -35 26 -94 5 -47 15 -91 25 -106 11 -16 20 -56 23 -102 4 -52 12 -83 23
-96 10 -12 21 -37 25 -57 4 -21 15 -49 24 -63 10 -14 21 -44 24 -68 3 -24 13
-52 22 -62 9 -10 21 -35 27 -56 5 -21 19 -49 29 -63 11 -13 19 -31 19 -40 0
-10 11 -32 25 -51 14 -19 25 -44 25 -56 0 -13 8 -29 18 -36 9 -7 23 -25 29
-40 7 -16 17 -28 22 -28 5 0 15 -17 22 -37 7 -21 20 -44 31 -51 10 -7 18 -17
18 -22 0 -5 10 -20 23 -33 20 -21 42 -55 72 -109 5 -10 18 -21 27 -24 10 -3
18 -10 18 -16 0 -6 10 -21 23 -34 12 -13 45 -49 72 -79 98 -110 259 -265 275
-265 6 0 10 -7 10 -15 0 -8 11 -17 25 -21 13 -3 27 -15 30 -25 4 -10 12 -19
19 -19 7 0 22 -10 33 -22 11 -13 35 -32 54 -43 18 -11 42 -25 53 -32 11 -6 23
-19 28 -27 5 -9 15 -16 23 -16 8 0 22 -11 31 -25 9 -14 24 -25 34 -25 10 0 32
-11 48 -25 17 -14 33 -25 37 -25 4 0 20 -11 37 -25 16 -14 38 -25 48 -25 11 0
27 -9 37 -19 10 -11 30 -22 45 -26 14 -4 34 -15 44 -26 9 -10 26 -19 36 -19
10 0 30 -11 43 -24 13 -13 42 -27 64 -31 23 -4 44 -12 48 -19 5 -7 25 -19 46
-26 21 -6 41 -18 43 -25 3 -7 28 -16 55 -20 27 -4 59 -15 71 -25 13 -9 38 -21
57 -25 18 -4 41 -15 50 -24 11 -11 40 -20 74 -24 31 -3 68 -14 84 -25 15 -11
52 -23 82 -27 29 -3 63 -12 75 -20 11 -7 52 -18 90 -24 37 -5 76 -16 85 -24
10 -10 60 -18 146 -25 72 -6 148 -17 170 -26 29 -10 110 -17 285 -24 135 -6
247 -9 250 -7 3 2 102 6 220 10 157 5 224 11 248 21 18 9 92 20 165 26 85 7
136 16 145 24 15 16 32 20 111 29 30 3 67 13 82 20 15 8 54 18 86 21 32 4 70
16 84 27 15 10 49 21 75 24 27 3 54 11 59 18 6 6 28 18 50 25 22 7 51 21 65
31 14 9 42 20 62 23 23 4 42 15 48 26 6 11 19 20 30 20 11 0 24 9 30 19 5 11
23 22 39 26 16 3 37 17 45 31 9 13 21 24 26 24 13 0 170 157 170 169 0 6 9 15
20 21 11 6 20 17 20 24 0 7 11 23 25 36 14 13 27 38 31 56 3 18 15 40 25 50
10 9 19 27 19 38 0 12 9 39 20 61 17 32 20 59 20 152 0 92 -3 115 -15 119 -8
4 -18 24 -21 46 -4 22 -13 42 -21 45 -7 3 -20 21 -28 40 -8 20 -36 54 -62 77
-26 22 -55 48 -64 58 -9 9 -26 19 -38 23 -11 3 -23 15 -26 26 -4 13 -15 19
-34 19 -16 0 -39 9 -53 19 -26 21 -78 38 -78 26 0 -13 23 -50 36 -58 7 -4 16
-29 20 -55 4 -26 14 -52 22 -58 35 -26 38 -277 4 -323 -10 -14 -22 -50 -25
-80 -4 -34 -14 -62 -27 -76 -11 -12 -20 -27 -20 -33 0 -6 -11 -19 -25 -28 -14
-9 -25 -23 -25 -30 0 -8 -11 -19 -25 -24 -14 -5 -25 -13 -25 -18 0 -9 -106
-82 -119 -82 -5 0 -14 -6 -20 -14 -6 -8 -32 -19 -56 -25 -25 -6 -45 -15 -45
-20 0 -13 -57 -31 -97 -31 -19 0 -46 -9 -62 -21 -17 -12 -50 -22 -87 -26 -32
-3 -70 -13 -84 -22 -21 -14 -66 -16 -315 -16 -252 0 -293 2 -315 16 -14 10
-55 19 -93 22 -47 3 -74 11 -88 23 -14 13 -43 20 -93 25 -50 4 -82 12 -102 26
-16 11 -46 23 -68 26 -21 3 -46 13 -55 21 -10 9 -32 19 -50 22 -17 4 -37 15
-44 24 -7 10 -30 21 -51 25 -20 4 -43 16 -49 26 -7 11 -18 19 -26 19 -8 0 -29
11 -47 25 -18 14 -37 25 -43 25 -6 0 -21 11 -33 25 -12 14 -28 25 -35 25 -7 0
-13 4 -13 10 0 5 -17 21 -38 34 -73 46 -292 278 -292 310 0 7 -11 21 -25 30
-14 9 -25 21 -25 27 0 6 -11 25 -24 42 -13 18 -27 42 -30 54 -4 11 -13 24 -21
27 -8 3 -17 22 -21 43 -4 21 -15 44 -24 50 -10 7 -21 24 -24 39 -4 14 -15 38
-25 53 -11 14 -22 48 -25 75 -4 31 -14 57 -26 68 -11 11 -20 32 -20 49 0 16
-9 48 -20 69 -12 23 -24 74 -29 123 -5 48 -15 94 -25 109 -11 18 -19 65 -27
163 -5 77 -12 142 -15 146 -6 11 -7 326 0 338 4 5 11 72 17 148 7 105 14 144
28 163 11 16 20 52 24 97 3 39 14 88 25 110 10 21 22 53 25 71 4 19 16 45 27
59 11 14 20 41 20 60 0 20 10 49 25 71 14 20 25 44 25 53 0 9 7 22 15 29 9 7
20 32 26 56 6 23 20 50 30 60 10 9 19 22 19 28 0 6 11 28 25 48 14 20 25 44
25 53 0 8 7 18 16 22 9 3 24 26 35 50 10 24 25 46 34 49 8 4 15 12 15 20 0 8
9 19 20 26 11 7 20 18 20 24 0 6 9 22 20 35 69 82 80 98 80 108 0 6 11 18 24
26 13 9 26 25 29 35 3 11 12 20 20 20 8 0 17 9 20 21 3 11 15 23 26 26 12 3
21 11 21 17 0 7 10 22 23 34 12 11 28 27 34 34 7 7 17 18 23 23 5 6 24 27 42
48 17 20 39 37 49 37 9 0 19 9 22 21 3 11 15 23 26 26 12 3 21 12 21 19 0 8
11 20 25 26 14 6 25 17 25 25 0 7 8 17 18 20 9 4 27 16 39 27 50 48 60 56 83
68 25 13 48 32 94 76 13 12 28 22 33 22 5 0 20 11 33 25 13 14 29 25 37 25 7
0 23 11 35 25 12 14 29 25 37 25 9 0 21 8 28 19 6 10 24 22 39 25 16 4 34 16
42 27 7 10 19 19 26 19 7 0 22 11 34 25 12 14 32 25 44 25 28 0 42 10 51 33 3
9 14 17 23 17 9 0 29 11 46 25 16 14 40 25 53 25 14 0 25 7 28 19 3 13 17 22
43 27 22 4 45 15 51 24 7 10 25 21 40 25 16 3 36 15 46 26 10 10 30 19 46 19
16 0 40 11 55 25 15 14 34 25 43 25 9 0 26 9 38 20 12 12 40 24 61 27 21 3 47
14 56 24 10 10 34 21 53 25 19 3 35 10 35 14 0 8 40 25 83 34 15 4 36 15 47
26 11 11 33 20 48 20 16 0 37 9 47 20 10 11 37 22 64 26 25 3 55 14 66 24 11
10 43 22 70 25 28 4 61 15 75 25 14 9 43 20 64 24 22 4 51 16 64 27 17 13 41
19 75 19 38 0 56 5 73 21 14 13 42 23 71 27 26 3 59 13 73 23 15 11 52 21 95
25 47 5 76 13 87 24 11 11 41 20 85 25 37 4 81 14 98 23 16 8 64 18 107 23 46
4 88 15 104 26 22 14 53 19 143 22 97 3 119 7 143 24 21 15 47 21 110 25 54 2
98 11 125 24 36 16 72 20 230 25 134 5 191 10 201 19 18 18 52 22 249 29 95 3
178 8 185 10 64 22 357 33 803 28 340 -3 469 -9 496 -23 8 -5 85 -11 170 -15
169 -7 197 -10 219 -29 10 -9 69 -15 187 -20 174 -6 196 -9 223 -31 8 -7 54
-15 101 -18 59 -3 95 -10 114 -23 20 -13 57 -20 137 -25 83 -5 112 -11 121
-23 8 -11 37 -19 87 -25 41 -5 92 -15 112 -24 20 -8 62 -19 93 -22 39 -5 60
-13 68 -26 8 -13 24 -19 47 -19 59 -1 123 -17 136 -34 7 -10 26 -16 49 -16 25
0 47 -8 67 -25 22 -19 41 -25 74 -25 29 0 62 -9 92 -25 26 -14 55 -25 64 -25
9 0 25 -8 35 -19 10 -10 39 -21 67 -25 28 -3 59 -15 70 -25 12 -10 36 -21 54
-25 19 -3 45 -15 59 -26 14 -11 36 -20 48 -20 12 0 33 -8 46 -19 14 -10 41
-23 62 -29 20 -6 49 -20 63 -31 15 -12 35 -21 45 -21 10 0 21 -9 24 -20 5 -15
15 -20 40 -20 21 0 44 -9 62 -24 15 -13 38 -26 51 -30 12 -4 27 -16 32 -27 7
-12 21 -19 40 -19 17 0 38 -8 48 -17 10 -10 34 -26 55 -35 20 -10 37 -22 37
-28 0 -5 7 -10 15 -10 9 0 27 -11 40 -24 13 -13 38 -27 55 -31 16 -4 35 -15
40 -26 6 -10 17 -19 25 -19 8 0 20 -8 27 -18 7 -11 29 -24 50 -31 20 -7 39
-19 42 -27 3 -8 17 -19 31 -24 14 -5 25 -16 25 -25 0 -8 8 -15 18 -15 11 0 27
-10 38 -21 10 -12 34 -28 52 -36 17 -7 32 -20 32 -28 0 -9 9 -15 21 -15 12 0
23 -8 26 -19 2 -10 16 -24 29 -30 14 -6 27 -18 30 -26 4 -8 12 -15 20 -15 7 0
17 -6 21 -14 4 -7 22 -22 39 -32 16 -11 47 -38 68 -61 21 -23 46 -45 57 -48
10 -4 19 -10 19 -15 0 -5 54 -64 120 -130 82 -82 123 -131 127 -151 4 -19 12
-29 24 -29 10 0 21 -9 24 -20 3 -11 15 -25 26 -30 10 -6 19 -20 19 -30 0 -11
7 -20 15 -20 8 0 20 -10 26 -22 7 -13 23 -36 35 -51 13 -16 24 -37 24 -47 0
-10 9 -21 19 -25 10 -3 22 -18 26 -32 3 -15 17 -40 31 -56 13 -16 24 -33 24
-38 0 -5 9 -18 20 -29 11 -11 20 -31 20 -44 0 -12 11 -35 25 -50 14 -15 25
-37 25 -50 0 -13 9 -30 20 -37 13 -9 23 -30 27 -54 3 -22 14 -48 23 -57 10 -9
21 -33 25 -54 3 -21 15 -49 26 -62 11 -14 19 -40 19 -62 0 -23 8 -48 21 -64
14 -17 24 -51 30 -98 5 -40 13 -74 18 -78 19 -11 28 -56 30 -139 2 -64 6 -88
18 -96 24 -18 31 -126 29 -457 -1 -164 1 -298 6 -298 4 0 8 7 8 15 0 8 9 19
20 25 11 6 20 17 20 26 0 8 7 17 15 21 9 3 25 23 36 45 11 21 26 41 34 45 8 3
15 11 15 19 0 7 11 21 25 30 14 9 25 25 25 35 0 11 4 19 9 19 13 0 91 105 91
123 0 10 7 17 15 17 9 0 20 11 25 25 5 14 16 28 24 31 8 3 20 21 26 40 7 19
20 39 31 44 10 6 19 17 19 25 0 8 9 20 20 27 11 7 20 18 20 25 0 6 11 24 24
40 13 15 26 38 30 51 4 12 16 27 27 32 10 6 19 17 19 24 0 8 7 20 17 27 9 8
22 29 30 47 7 18 20 40 29 50 36 41 74 96 74 108 0 8 9 19 20 26 11 7 20 20
20 29 0 9 11 28 25 43 14 15 25 36 25 47 0 12 8 23 20 26 13 3 22 17 26 40 4
19 15 40 25 46 11 7 19 17 19 24 0 7 11 24 25 39 14 15 25 35 25 45 0 10 11
30 25 45 14 15 25 35 25 46 0 10 11 28 25 40 14 12 25 31 25 43 0 12 11 32 25
45 14 13 25 31 25 40 0 10 9 28 19 42 11 13 23 37 27 52 3 14 15 31 25 37 11
5 19 20 19 34 0 13 11 36 25 51 14 15 25 35 25 45 0 10 11 30 25 45 14 15 25
39 25 54 0 15 7 33 15 40 8 7 24 32 35 56 10 24 23 44 28 44 5 0 12 18 16 40
3 21 15 47 25 57 10 10 21 35 25 56 4 21 13 40 21 43 8 3 17 20 20 37 4 18 15
41 25 52 10 11 22 37 25 58 4 20 16 48 26 61 11 13 19 31 19 39 0 8 11 30 23
49 13 19 26 54 30 77 3 25 14 51 26 62 12 11 21 31 21 44 0 13 9 30 20 38 15
10 23 30 27 67 4 31 14 61 24 71 10 10 22 37 25 60 4 22 14 47 22 55 8 9 19
36 23 62 5 25 18 55 28 66 10 12 21 42 24 69 2 26 12 56 20 65 9 10 20 37 26
62 5 24 17 49 25 55 8 6 18 35 21 66 7 59 23 109 35 109 4 0 10 21 14 48 4 32
13 51 26 60 15 9 20 23 20 60 0 60 16 118 35 126 10 3 15 20 15 49 0 23 9 60
20 82 11 21 23 62 26 89 4 28 14 67 24 86 10 19 23 70 29 113 6 42 17 87 25
100 7 12 17 49 20 81 5 41 12 64 25 72 15 11 19 32 24 114 3 68 10 109 21 125
9 14 21 57 25 96 6 41 16 78 26 89 14 16 17 49 17 261 0 214 -2 244 -16 255
-10 7 -19 33 -23 65 -3 30 -17 74 -30 98 -12 24 -23 60 -23 79 0 22 -9 45 -25
64 -14 16 -25 36 -25 45 0 8 -9 27 -19 42 -11 15 -23 39 -26 53 -4 15 -15 34
-26 44 -10 9 -19 22 -19 28 0 13 -47 83 -77 116 -13 13 -23 32 -23 41 0 10 -8
20 -18 24 -11 3 -24 17 -30 30 -6 14 -18 25 -27 25 -8 0 -15 7 -15 15 0 17
-186 207 -220 225 -11 6 -20 17 -20 24 0 8 -11 17 -25 20 -14 4 -25 13 -25 21
0 9 -11 20 -24 25 -13 5 -28 15 -33 23 -4 8 -23 22 -40 31 -18 9 -33 20 -33
25 0 5 -13 14 -30 20 -16 5 -30 17 -30 25 0 9 -8 16 -19 16 -10 0 -26 11 -34
24 -9 13 -30 26 -48 30 -18 3 -40 13 -48 21 -22 21 -90 65 -101 65 -5 0 -21
11 -37 24 -16 14 -41 28 -55 31 -15 4 -34 15 -44 26 -9 10 -27 19 -39 19 -12
0 -32 11 -45 25 -14 15 -35 25 -52 25 -15 0 -36 8 -47 19 -10 10 -35 24 -54
30 -19 7 -37 18 -40 25 -3 7 -28 16 -57 20 -30 4 -59 15 -70 26 -11 11 -26 20
-34 20 -21 0 -86 29 -86 39 0 5 -20 11 -45 14 -25 2 -54 12 -65 22 -11 10 -40
21 -66 26 -26 5 -55 15 -63 23 -9 8 -36 17 -60 21 -24 4 -51 15 -60 24 -11 11
-42 20 -81 24 -43 5 -71 14 -85 27 -12 11 -32 20 -44 20 -13 0 -40 10 -60 22
-25 16 -59 25 -108 29 -49 4 -79 12 -92 24 -11 9 -42 20 -68 23 -26 3 -62 13
-78 22 -17 9 -64 20 -105 24 -50 5 -82 14 -95 25 -13 13 -44 21 -93 25 -41 3
-93 15 -117 26 -24 11 -61 20 -82 20 -46 0 -104 16 -113 30 -4 6 -62 15 -130
20 -76 6 -132 15 -145 24 -12 8 -55 18 -96 21 -41 4 -87 15 -104 25 -23 14
-64 19 -184 24 -126 5 -162 10 -192 26 -30 15 -60 19 -142 21 -70 1 -123 7
-158 19 -39 13 -101 20 -224 24 -236 9 -416 17 -437 21 -9 2 -26 9 -38 15 -24
13 -857 20 -1125 10z"/>
</g>
</svg>
