<?xml version="1.0" standalone="no"?>
<!DOCTYPE svg PUBLIC "-//W3C//DTD SVG 20010904//EN"
 "http://www.w3.org/TR/2001/REC-SVG-20010904/DTD/svg10.dtd">
<svg version="1.0" xmlns="http://www.w3.org/2000/svg"
 width="500.000000pt" height="500.000000pt" viewBox="0 0 500.000000 500.000000"
 preserveAspectRatio="xMidYMid meet">

<g transform="translate(0.000000,500.000000) scale(0.100000,-0.100000)"
fill="#000000" stroke="none">
<path d="M1100 3415 c-181 -41 -347 -141 -456 -273 -61 -74 -137 -219 -160
-307 -22 -82 -30 -260 -15 -338 34 -176 109 -314 237 -438 236 -227 559 -291
867 -171 310 120 525 455 504 786 -13 199 -83 358 -221 504 -114 120 -236 191
-395 231 -98 24 -270 27 -361 6z m380 -85 c208 -69 356 -194 449 -377 98 -196
97 -460 -4 -652 -97 -185 -271 -323 -475 -378 -90 -24 -281 -24 -370 1 -245
70 -440 256 -518 494 -21 66 -25 96 -25 212 -1 119 2 144 25 212 80 242 276
429 513 492 92 24 102 25 225 21 83 -3 133 -10 180 -25z"/>
<path d="M842 3088 c-9 -9 -12 -123 -12 -450 0 -422 1 -438 19 -448 28 -14
184 -13 199 2 9 9 12 79 12 255 0 134 4 243 9 243 5 0 17 -12 27 -27 10 -16
56 -80 103 -143 46 -63 116 -158 154 -210 96 -130 92 -127 185 -129 44 -1 87
1 96 5 14 5 16 31 16 215 l0 209 -48 0 c-46 0 -72 13 -72 35 0 5 5 2 11 -7 8
-15 25 -18 97 -18 48 0 93 4 100 8 9 6 12 36 10 113 -3 99 -4 104 -25 107 -13
2 -23 10 -23 18 0 8 -4 14 -10 14 -5 0 -10 -6 -10 -14 0 -8 -7 -17 -16 -20
-23 -9 -54 -7 -54 3 0 5 9 7 20 4 20 -5 21 -2 18 118 l-3 124 -105 0 -105 0
-5 -253 -5 -252 -90 122 c-49 67 -110 149 -135 182 -24 34 -47 63 -50 66 -3 3
-25 32 -50 65 -25 33 -49 63 -55 67 -17 13 -190 9 -203 -4z m750 -248 c-4 -36
8 -54 22 -32 3 5 22 7 42 5 21 -1 43 2 50 8 8 7 14 7 19 -1 14 -22 -9 -30 -86
-30 -81 0 -96 9 -66 39 10 11 7 13 -18 8 -27 -5 -28 -4 -10 9 11 7 25 18 30
23 17 17 21 12 17 -29z m-53 -76 c-4 -61 -19 -56 -19 7 0 32 4 48 10 44 6 -4
10 -27 9 -51z m173 0 c3 -3 -16 -26 -44 -51 l-49 -47 -21 22 c-25 24 -17 42
11 25 16 -10 24 -6 52 23 33 34 41 39 51 28z"/>
</g>
</svg>
